HIERARCHY
ROOT Hips
{
	OFFSET 0.00000 0.00000 0.00000
	CHANNELS 6 Xposition Yposition Zposition Zrotation Yrotation Xrotation 
	JOINT LHipJoint
	{
		OFFSET 0 0 0
		CHANNELS 3 Zrotation Yrotation Xrotation
		JOINT LeftUpLeg
		{
			OFFSET 3.13874 -1.57224 1.49786
			CHANNELS 3 Zrotation Yrotation Xrotation
			JOINT LeftLeg
			{
				OFFSET 2.10955 -5.79594 0.00000
				CHANNELS 3 Zrotation Yrotation Xrotation
				JOINT LeftFoot
				{
					OFFSET 2.41843 -6.64458 0.00000
					CHANNELS 3 Zrotation Yrotation Xrotation
					JOINT LeftToeBase
					{
						OFFSET 0.04713 -0.12948 1.66229
						CHANNELS 3 Zrotation Yrotation Xrotation
						End Site
						{
							OFFSET 0.00000 -0.00000 0.85167
						}
					}
				}
			}
		}
	}
	JOINT RHipJoint
	{
		OFFSET 0 0 0
		CHANNELS 3 Zrotation Yrotation Xrotation
		JOINT RightUpLeg
		{
			OFFSET -3.13988 -1.57224 1.49786
			CHANNELS 3 Zrotation Yrotation Xrotation
			JOINT RightLeg
			{
				OFFSET -2.15006 -5.90725 0.00000
				CHANNELS 3 Zrotation Yrotation Xrotation
				JOINT RightFoot
				{
					OFFSET -2.34496 -6.44273 0.00000
					CHANNELS 3 Zrotation Yrotation Xrotation
					JOINT RightToeBase
					{
						OFFSET -0.08699 -0.23900 1.55223
						CHANNELS 3 Zrotation Yrotation Xrotation
						End Site
						{
							OFFSET -0.00000 -0.00000 0.80281
						}
					}
				}
			}
		}
	}
	JOINT LowerBack
	{
		OFFSET 0 0 0
		CHANNELS 3 Zrotation Yrotation Xrotation
		JOINT Spine
		{
			OFFSET 0.01292 1.96517 -0.16495
			CHANNELS 3 Zrotation Yrotation Xrotation
			JOINT Spine1
			{
				OFFSET 0.02122 1.88666 0.19706
				CHANNELS 3 Zrotation Yrotation Xrotation
				JOINT Neck
				{
					OFFSET 0 0 0
					CHANNELS 3 Zrotation Yrotation Xrotation
					JOINT Neck1
					{
						OFFSET -0.01683 1.81591 0.07903
						CHANNELS 3 Zrotation Yrotation Xrotation
						JOINT Head
						{
							OFFSET 0.00815 1.74013 -0.47700
							CHANNELS 3 Zrotation Yrotation Xrotation
							End Site
							{
								OFFSET -0.00204 1.83225 -0.16933
							}
						}
					}
				}
				JOINT LeftShoulder
				{
					OFFSET 0 0 0
					CHANNELS 3 Zrotation Yrotation Xrotation
					JOINT LeftArm
					{
						OFFSET 3.38482 1.41533 0.19802
						CHANNELS 3 Zrotation Yrotation Xrotation
						JOINT LeftForeArm
						{
							OFFSET 4.32712 -0.00000 0.00000
							CHANNELS 3 Zrotation Yrotation Xrotation
							JOINT LeftHand
							{
								OFFSET 3.28587 -0.00000 -0.00000
								CHANNELS 3 Zrotation Yrotation Xrotation
								JOINT LeftFingerBase
								{
									OFFSET 0 0 0
									CHANNELS 3 Zrotation Yrotation Xrotation
									JOINT LeftHandIndex1
									{
										OFFSET 0.43316 -0.00000 -0.00000
										CHANNELS 3 Zrotation Yrotation Xrotation
										End Site
										{
											OFFSET 0.34922 -0.00000 -0.00000
										}
									}
								}
								JOINT LThumb
								{
									OFFSET 0 0 0
									CHANNELS 3 Zrotation Yrotation Xrotation
									End Site
									{
										OFFSET 0.35456 -0.00000 0.35456
									}
								}
							}
						}
					}
				}
				JOINT RightShoulder
				{
					OFFSET 0 0 0
					CHANNELS 3 Zrotation Yrotation Xrotation
					JOINT RightArm
					{
						OFFSET -3.09725 1.62858 -0.14144
						CHANNELS 3 Zrotation Yrotation Xrotation
						JOINT RightForeArm
						{
							OFFSET -4.29104 -0.00000 0.00000
							CHANNELS 3 Zrotation Yrotation Xrotation
							JOINT RightHand
							{
								OFFSET -3.22720 -0.00000 -0.00000
								CHANNELS 3 Zrotation Yrotation Xrotation
								JOINT RightFingerBase
								{
									OFFSET 0 0 0
									CHANNELS 3 Zrotation Yrotation Xrotation
									JOINT RightHandIndex1
									{
										OFFSET -0.54362 -0.00000 -0.00000
										CHANNELS 3 Zrotation Yrotation Xrotation
										End Site
										{
											OFFSET -0.43828 -0.00000 -0.00000
										}
									}
								}
								JOINT RThumb
								{
									OFFSET 0 0 0
									CHANNELS 3 Zrotation Yrotation Xrotation
									End Site
									{
										OFFSET -0.44497 -0.00000 0.44497
									}
								}
							}
						}
					}
				}
			}
		}
	}
}
MOTION
Frames: 14
Frame Time: .0083333
35.6456 16.0952 1.1223 89.3562 -265.6070 100.6960 0.0000 0.0000 0.0000 -24.2321 -22.6228 -6.9243 1.1896 6.9213 19.4823 -0.0976 -9.3390 11.4115 7.4445 -15.6951 -50.5363 0.0000 0.0000 0.0000 29.6396 24.6791 -9.6301 -0.0074 0.5544 -1.5234 -1.6651 -0.0140 24.4212 -0.0878 -1.9107 5.2591 3.7151 4.4404 13.5979 -4.3727 6.6411 -11.1928 -9.3459 2.0545 -19.9038 14.6762 6.3794 -14.9954 2.5932 5.7191 34.5142 -0.2734 5.2602 15.0474 0.0000 -0.0000 0.0000 -62.0283 20.5851 34.0107 15.5834 -24.9525 -3.4683 -0.0000 -0.0000 9.8337 29.4247 26.9130 14.3219 -7.1250 0.0000 -0.0000 -0.8030 60.2113 -0.2980 0.0000 -0.0000 0.0000 79.9894 -16.5957 36.3495 -28.8395 39.8777 -10.6576 0.0000 -0.0000 -13.9702 -28.7308 -16.4708 8.8345 7.1250 -0.0000 -0.0000 -0.9138 -48.6102 0.0814
35.5461 16.0893 1.0525 102.5270 -265.5770 114.0790 0.0000 0.0000 0.0000 -24.5102 -22.5654 -7.5717 1.1999 6.9502 19.5680 -0.2228 -10.6218 10.9126 7.4156 -15.6721 -50.4291 0.0000 0.0000 0.0000 29.2269 25.2101 -9.8584 -0.0138 0.7587 -2.0851 -1.6276 -1.7980 23.6207 -0.1317 -2.3388 6.4429 3.7078 4.2194 13.7001 -4.2831 6.3367 -11.1309 -9.1580 1.9214 -19.9580 14.6767 6.3390 -15.0486 2.0904 5.7531 34.3475 -0.4877 5.1748 14.9929 -0.0000 -0.0000 0.0000 -62.0482 18.7832 32.5362 15.4424 -24.7588 -3.4091 -0.0000 -0.0000 10.9144 29.4797 26.9545 14.3724 -7.1250 0.0000 -0.0000 -0.7532 60.2698 -0.2805 -0.0000 -0.0000 0.0000 79.8895 -17.2094 35.5964 -28.7645 39.8106 -10.6096 0.0000 -0.0000 -14.0821 -28.4811 -16.6525 8.8371 7.1250 -0.0000 -0.0000 -0.6427 -48.7719 0.0598
35.4440 16.0780 0.9834 114.9480 -265.2710 126.7110 0.0000 0.0000 0.0000 -24.6906 -22.5170 -8.2614 1.2145 6.9908 19.6880 -0.3372 -11.7159 10.4122 7.3887 -15.6507 -50.3297 0.0000 0.0000 0.0000 28.7710 25.7514 -10.2853 -0.0189 0.8882 -2.4412 -1.5642 -3.6041 22.7551 -0.1713 -2.6665 7.3516 3.7593 4.0533 13.8076 -4.1881 6.1224 -11.0595 -9.0185 1.8234 -19.9803 14.6144 6.2856 -15.1604 1.6056 5.7635 34.1141 -0.6884 5.0695 14.9146 -0.0000 0.0000 0.0000 -62.0653 16.9744 31.1454 15.4542 -24.7750 -3.4140 -0.0000 -0.0000 11.6209 29.8511 26.7621 14.4891 -7.1250 0.0000 -0.0000 -0.2445 60.1555 -0.0904 -0.0000 0.0000 0.0000 79.7691 -17.7821 34.8583 -28.6796 39.7344 -10.5553 0.0000 -0.0000 -14.1600 -28.2171 -16.8373 8.8344 7.1250 -0.0000 -0.0000 -0.3556 -48.9340 0.0345
35.3381 16.0622 0.9141 125.7970 -264.7060 137.8030 0.0000 0.0000 0.0000 -24.7563 -22.4401 -9.0544 1.2348 7.0468 19.8540 -0.4296 -12.5487 9.9470 7.3322 -15.6054 -50.1198 0.0000 0.0000 0.0000 28.3452 25.8114 -11.1483 -0.0197 0.9065 -2.4916 -1.5085 -5.3845 22.0912 -0.2075 -2.9326 8.0911 3.9024 3.9602 13.9313 -4.1306 6.0270 -10.9973 -9.0109 1.7618 -19.9914 14.4817 6.2068 -15.3309 1.1898 5.7154 33.7783 -0.8598 4.9338 14.7921 0.0000 -0.0000 0.0000 -62.0060 15.2013 29.9976 15.6433 -25.0347 -3.4937 -0.0000 -0.0000 11.7689 30.4599 26.4537 14.6807 -7.1250 0.0000 -0.0000 0.5819 59.9741 0.2126 0.0000 -0.0000 0.0000 79.6954 -18.3235 34.0915 -28.5937 39.6571 -10.5004 0.0000 -0.0000 -14.2102 -27.9844 -17.0126 8.8369 7.1250 -0.0000 -0.0000 -0.0992 -49.0901 0.0100
35.2282 16.0429 0.8447 134.5400 -263.9060 146.8270 0.0000 0.0000 0.0000 -24.6940 -22.3082 -9.9606 1.2587 7.1120 20.0477 -0.5021 -13.1725 9.5176 7.2332 -15.5251 -49.7508 0.0000 0.0000 0.0000 27.8597 26.0242 -12.2708 -0.0125 0.7209 -1.9813 -1.2928 -7.3382 20.3223 -0.3236 -3.6566 10.1125 4.1515 3.9412 14.0877 -4.1251 6.0550 -10.9536 -9.1667 1.7330 -20.0120 14.2651 6.0937 -15.5601 0.8760 5.5889 33.3262 -0.9895 4.7616 14.6169 -0.0000 -0.0000 0.0000 -61.8308 13.5335 29.2254 16.0242 -25.5534 -3.6564 -0.0000 -0.0000 11.2812 31.1970 26.0960 14.9154 -7.1250 0.0000 -0.0000 1.5692 59.7690 0.5658 -0.0000 -0.0000 0.0000 79.7023 -18.8330 33.2825 -28.5127 39.5840 -10.4488 0.0000 -0.0000 -14.2194 -27.7723 -17.1990 8.8509 7.1250 -0.0000 -0.0000 0.1401 -49.2611 -0.0147
35.1137 16.0219 0.7747 141.2990 -262.9270 153.9080 0.0000 0.0000 0.0000 -24.5243 -22.1312 -10.9840 1.2858 7.1855 20.2661 -0.5629 -13.6848 9.1251 7.0928 -15.4095 -49.2243 0.0000 0.0000 0.0000 27.5044 25.7162 -13.8354 -0.0035 0.3834 -1.0535 -1.0147 -9.0196 18.1317 -0.4942 -4.5073 12.5086 4.4567 3.9784 14.2525 -4.2436 6.1583 -11.1625 -9.3447 1.7634 -19.8270 14.0164 5.9658 -15.8158 0.6289 5.4196 32.7661 -1.0936 4.5712 14.3943 0.0000 -0.0000 0.0000 -61.5519 12.0687 28.8427 16.6111 -26.3422 -3.9132 -0.0000 -0.0000 10.3303 31.8776 25.8699 15.1819 -7.1250 0.0000 -0.0000 2.4448 59.6919 0.8772 0.0000 -0.0000 0.0000 79.7822 -19.2906 32.4772 -28.4250 39.5046 -10.3930 0.0000 -0.0000 -14.1808 -27.5721 -17.4129 8.8813 7.1250 -0.0000 -0.0000 0.3737 -49.4636 -0.0411
34.9949 16.0003 0.7051 146.4410 -261.8130 159.4020 0.0000 0.0000 0.0000 -24.2680 -21.8977 -12.1140 1.3169 7.2684 20.5129 -0.6191 -14.1446 8.6889 6.9220 -15.2659 -48.5789 0.0000 0.0000 0.0000 27.2729 25.2396 -15.6913 -0.0005 -0.1431 0.3931 -0.6849 -10.2712 15.3935 -0.8151 -5.7610 16.0926 4.7970 4.0434 14.4831 -4.3037 6.3264 -11.1837 -9.6858 1.7691 -19.9284 13.7708 5.8407 -16.0623 0.4113 5.2471 32.1278 -1.1859 4.3811 14.1379 -0.0000 0.0000 0.0000 -61.2106 10.8895 28.8009 17.3846 -27.3621 -4.2626 -0.0000 -0.0000 9.1605 32.5315 25.6833 15.4529 -7.1250 0.0000 -0.0000 3.2765 59.6508 1.1727 -0.0000 0.0000 0.0000 79.9101 -19.6783 31.7287 -28.3090 39.3991 -10.3192 0.0000 -0.0000 -14.0919 -27.4084 -17.6149 8.9180 7.1250 -0.0000 -0.0000 0.5709 -49.6586 -0.0656
34.8737 15.9790 0.6372 150.4070 -260.6170 163.7260 0.0000 0.0000 0.0000 -23.9716 -21.5969 -13.3002 1.3492 7.3534 20.7666 -0.6727 -14.5732 8.1755 6.7370 -15.1064 -47.8725 0.0000 0.0000 0.0000 27.1880 24.6604 -17.7167 -0.0172 -0.8464 2.3264 -0.5998 -8.4078 14.1349 -0.2086 -2.9407 8.1137 5.0861 4.1173 14.7201 -4.3529 6.5011 -11.2317 -9.9929 1.7815 -20.0724 13.5352 5.7299 -16.2731 0.2007 5.1026 31.4597 -1.2705 4.2064 13.8680 -0.0000 -0.0000 0.0000 -60.8731 10.0405 29.0162 18.2974 -28.5363 -4.6904 -0.0000 -0.0000 7.9678 33.1680 25.4977 15.7140 -7.1250 0.0000 -0.0000 4.0866 59.6061 1.4589 -0.0000 -0.0000 0.0000 80.0490 -19.9870 31.0765 -28.1449 39.2493 -10.2153 0.0000 -0.0000 -13.9224 -27.2759 -17.7610 8.9385 7.1250 -0.0000 -0.0000 0.7285 -49.7967 -0.0862
34.7518 15.9597 0.5724 153.5230 -259.3910 167.1630 0.0000 0.0000 0.0000 -23.6771 -21.2223 -14.4701 1.3800 7.4336 21.0065 -0.7242 -14.9833 7.5699 6.5331 -14.9258 -47.0857 0.0000 0.0000 0.0000 27.2733 23.9615 -19.7680 -0.0689 -1.6935 4.6593 -0.5034 -6.4977 12.7495 -0.0094 -0.6256 1.7192 5.2729 4.1768 14.9463 -4.3646 6.6390 -11.2929 -10.1900 1.7923 -20.2489 13.3413 5.6459 -16.4285 -0.0383 5.0150 30.8368 -1.3609 4.0633 13.6175 0.0000 -0.0000 0.0000 -60.6105 9.5334 29.3579 19.2605 -29.7411 -5.1594 -0.0000 -0.0000 6.9297 33.7335 25.2928 15.9233 -7.1250 0.0000 -0.0000 4.8143 59.5213 1.7096 0.0000 -0.0000 0.0000 80.1717 -20.2182 30.5481 -27.9245 39.0466 -10.0761 0.0000 -0.0000 -13.6538 -27.1703 -17.8269 8.9302 7.1250 -0.0000 -0.0000 0.8453 -49.8513 -0.1011
34.6323 15.9441 0.5119 155.9960 -258.1840 169.8800 0.0000 0.0000 0.0000 -23.4209 -20.7825 -15.5236 1.4032 7.4932 21.1851 -0.7664 -15.3236 6.9285 6.3160 -14.7278 -46.2372 0.0000 0.0000 0.0000 27.5350 23.1162 -21.6740 -0.1723 -2.6739 7.3722 -0.3969 -4.4890 11.2110 -0.0159 0.8133 -2.2352 5.3599 4.2135 15.1335 -4.3341 6.7262 -11.3494 -10.2616 1.7999 -20.4209 13.2199 5.5903 -16.5176 -0.3378 4.9898 30.3039 -1.4736 3.9564 13.4049 0.0000 -0.0000 0.0000 -60.4762 9.3204 29.7266 20.1883 -30.8685 -5.6276 -0.0000 -0.0000 6.1028 34.1349 25.1532 16.0744 -7.1250 0.0000 -0.0000 5.3284 59.4672 1.8859 0.0000 -0.0000 0.0000 80.2764 -20.3769 30.1453 -27.6393 38.7820 -9.8969 0.0000 -0.0000 -13.3222 -27.1180 -17.7807 8.8885 7.1250 -0.0000 -0.0000 0.8888 -49.7919 -0.1050
34.5165 15.9340 0.4566 157.9590 -257.0250 171.9840 0.0000 0.0000 0.0000 -23.2138 -20.3066 -16.3765 1.4127 7.5174 21.2575 -0.7999 -15.6077 6.2598 6.0912 -14.5162 -45.3467 0.0000 0.0000 0.0000 27.9437 22.1374 -23.2329 -0.3357 -3.7234 10.2999 -0.2595 -2.4538 9.0854 -0.0851 1.8820 -5.1796 5.4024 4.2334 15.2765 -4.2865 6.7792 -11.3942 -10.2709 1.8042 -20.5632 13.1824 5.5425 -16.5415 -0.6897 4.9912 29.8922 -1.6134 3.8742 13.2395 -0.0000 0.0000 0.0000 -60.4736 9.3159 30.1018 20.9891 -31.8156 -6.0442 -0.0000 -0.0000 5.4411 34.3622 25.1045 16.1771 -7.1250 0.0000 -0.0000 5.6135 59.4706 1.9876 -0.0000 0.0000 0.0000 80.4070 -20.4767 29.8409 -27.2750 38.4401 -9.6696 0.0000 -0.0000 -12.9848 -27.1346 -17.6207 8.8185 7.1250 -0.0000 -0.0000 0.8432 -49.6193 -0.0960
34.4054 15.9304 0.4059 159.5430 -255.9440 173.6010 0.0000 0.0000 0.0000 -23.0782 -19.8377 -16.9688 1.4054 7.4987 21.2014 -0.8272 -15.8609 5.5836 5.8670 -14.2982 -44.4454 0.0000 0.0000 0.0000 28.4315 20.9990 -24.3735 -0.5685 -4.8289 13.4211 -0.1070 -0.5067 6.0165 -0.0969 2.0076 -5.5267 5.4552 4.2455 15.3678 -4.2521 6.8183 -11.4234 -10.2881 1.8054 -20.6512 13.2270 5.4810 -16.5075 -1.0750 4.9808 29.6097 -1.7798 3.8022 13.1211 -0.0000 -0.0000 0.0000 -60.5996 9.4408 30.4922 21.5934 -32.5144 -6.3659 -0.0000 -0.0000 4.8602 34.4540 25.1352 16.2474 -7.1250 0.0000 -0.0000 5.7194 59.5285 2.0332 -0.0000 -0.0000 0.0000 80.6043 -20.5338 29.6015 -26.8329 38.0194 -9.3961 0.0000 -0.0000 -12.6969 -27.2241 -17.3821 8.7375 7.1250 -0.0000 -0.0000 0.7123 -49.3723 -0.0768
34.2999 15.9333 0.3592 160.8160 -254.9640 174.7950 0.0000 0.0000 0.0000 -23.0113 -19.4734 -17.2351 1.3715 7.4115 20.9403 -0.8567 -16.1682 4.8266 5.6554 -14.0858 -43.5824 0.0000 0.0000 0.0000 28.8828 19.8015 -24.9778 -0.8878 -6.0059 16.8016 0.0035 1.4732 1.6439 -0.0642 1.6347 -4.4971 5.5502 4.2531 15.3994 -4.2359 6.8549 -11.4335 -10.3387 1.8052 -20.6678 13.1322 5.3890 -16.5774 -1.1767 4.8830 29.6386 -1.8208 3.7324 13.1364 -0.0000 0.0000 0.0000 -60.8662 9.6531 30.8964 21.9670 -32.9397 -6.5679 -0.0000 -0.0000 4.3398 34.4072 25.2400 16.2804 -7.1250 0.0000 -0.0000 5.6427 59.6343 2.0201 -0.0000 0.0000 0.0000 80.8641 -20.5686 29.4228 -26.3395 37.5420 -9.0937 0.0000 -0.0000 -12.4879 -27.3569 -17.1113 8.6559 7.1250 -0.0000 -0.0000 0.5348 -49.0964 -0.0540
34.1992 15.9423 0.3148 161.9770 -254.1080 175.7810 0.0000 0.0000 0.0000 -23.0658 -19.2657 -17.1838 1.3162 7.2666 20.5076 -0.8912 -16.5666 3.9869 5.4587 -13.8825 -42.7687 0.0000 0.0000 0.0000 29.2059 18.4723 -25.1222 -1.2840 -7.1804 20.2510 -0.0345 3.0416 -3.6662 -0.0176 0.8562 -2.3532 5.6662 4.2563 15.3692 -4.2425 6.8830 -11.4289 -10.4146 1.8031 -20.6206 12.8195 5.2664 -16.7870 -0.9060 4.6880 30.0000 -1.6899 3.6635 13.2972 -0.0000 -0.0000 0.0000 -61.2894 9.9544 31.3096 22.1259 -33.1191 -6.6545 -0.0000 -0.0000 3.9291 34.2007 25.4155 16.2608 -7.1250 0.0000 -0.0000 5.3565 59.7782 1.9356 -0.0000 -0.0000 0.0000 81.1552 -20.6091 29.3183 -25.8334 37.0437 -8.7871 0.0000 -0.0000 -12.3619 -27.4737 -16.8631 8.5778 7.1250 -0.0000 -0.0000 0.3790 -48.8421 -0.0359
